# xmcd
#
# Track frame offsets: 
#        150
#        19597
#        45247
#        69710
#        92947
#        110947
#        133522
#        155660
#        175240
#        193222
#        216210
#        235597
#        257007
#        278157
#        296690
#        318660
#
# Disc length: 4519 seconds
#
# Revision: 4
# Processed by: cddbd v1.5.2PL0 Copyright (c) Steve Scherf et al.
# Submitted via: ExactAudioCopy v1.0b3
#
DISCID=f211a510
DTITLE=Various Artist - John Armstrong presents... Big Salsa
DYEAR=2000
DGENRE=Salsa
TTITLE0=Hansel y Raul - Kuku-Cha Ku-Cha
TTITLE1=Orlando Poleo - Ahora Baila
TTITLE2=Rey Ruiz - Así se Compone un Son
TTITLE3=Willie Colon - Idilio
TTITLE4=Willy Chirino - Bongo
TTITLE5=Joe Arroyo - Blanco y Negro
TTITLE6=Grupo Niche - Que Ironía
TTITLE7=DLG - Suéltame
TTITLE8=Albita - El Chico Chevere
TTITLE9=Willy Chirino - La Jinetera
TTITLE10=Robby Salinas - Indestructible
TTITLE11=Trina Medina - Tu Me la Pagarás
TTITLE12=Hansel y La Orquesta Calle Ocho - Si no Bailas Conmigo
TTITLE13=Orlando Poleo - Cimarroneando Dos
TTITLE14=DLG - Acuyuyé
TTITLE15=Kassav' - O' Madiana
EXTD=YEAR: 2000
EXTT0=
EXTT1=
EXTT2=
EXTT3=
EXTT4=
EXTT5=
EXTT6=
EXTT7=
EXTT8=
EXTT9=
EXTT10=
EXTT11=
EXTT12=
EXTT13=
EXTT14=
EXTT15=
PLAYORDER=
